<?xml version="1.0" standalone="no"?><!DOCTYPE svg PUBLIC "-//W3C//DTD SVG 1.1//EN" "http://www.w3.org/Graphics/SVG/1.1/DTD/svg11.dtd"><svg class="icon" width="200px" height="200.00px" viewBox="0 0 1024 1024" version="1.1" xmlns="http://www.w3.org/2000/svg"><path d="M222.633558 654.016831l-30.254545-1.928312a15.825455 15.825455 0 0 1-14.495584-12.766753c-6.981818-35.972987-10.638961-75.004675-24.868572-105.658182-22.674286-48.806234-59.046234-84.247273-103.72987-115.366233-6.163948-4.255584-8.511169-10.359688-7.048312-18.285715 4.189091-23.405714 11.503377-46.678442 11.37039-69.884675-0.265974-54.045922-6.649351-107.387013-19.15013-160.04987-0.891013-3.856623-0.292571-9.309091 1.795325-16.357403 6.157299-20.666182 19.968-28.06026 41.425454-22.208831 33.865143 9.255896 67.730286 18.525091 101.602078 27.794286 35.308052 9.708052 108.051948 25.799481 137.575065 2.127792 22.341818-17.886753 33.845195-25.267532 62.503896-30.254545a7.447273 7.447273 0 0 0 6.117403-6.316884c1.728831-12.168312 1.13039-26.331429 3.457662-37.302857C404.094338 15.878649 483.088623-22.554597 545.326545 24.389818c41.358961 31.251948 56.452987 92.292987 21.211429 134.782338-37.768312 45.614545-92.093506 38.632727-143.027532 20.546493-3.457662-1.250078-5.033558-0.026597-4.721039 3.657143 4.787532 51.266494 37.16987 91.096104 67.025454 130.65974 6.955221 9.176104 14.468987 16.756364 22.541299 22.74078a4.255584 4.255584 0 0 0 6.782338-2.925715c4.654545-40.96 36.172468-51.798442 60.775064-76.467532 22.11574-22.168935 33.68561-46.279481 34.709611-72.344935 0.465455-11.303896-8.644156-26.065455-6.050909-40.494546 11.037922-60.974545 50.335584-19.549091 76.932987-4.854026 73.874286 40.893506 183.987532-0.864416 260.787532-26.065454 36.305455-11.902338 50.934026 15.027532 44.883117 48.074805a1229.51813 1229.51813 0 0 0-16.024935 121.417143c-2.220883 27.209143 1.416312 60.921351 10.904935 101.136623 4.122597 17.421299-5.518961 32.448831-21.078441 42.688831-56.984935 37.568831-95.484675 98.676364-106.655585 169.691429-2.65974 16.955844-5.718442 23.937662-18.086234 33.446234a8.311688 8.311688 0 0 1-6.516363 1.52935 58.926545 58.926545 0 0 0-33.512728 3.391169c-2.127792 0.877714-3.68374 2.340571-4.654545 4.388572-2.792727 5.798234-3.504208 11.702857-2.127792 17.687272 8.245195 37.036883 3.657143 66.094545-6.782338 109.581299-27.195844 113.038961-145.687273 248.22026-270.562078 252.608831-113.570909 3.923117-218.697143-111.443117-262.117402-205.265454-23.13974-49.923325-31.364987-102.187221-24.669091-156.791689 0.219429-1.994805-0.664935-3.058701-2.659741-3.191688z m287.152208-530.305662c10.293195-12.307948 7.606857-31.517922-5.997714-42.888312-13.611221-11.377039-32.980779-10.625662-43.280623 1.688935-10.293195 12.307948-7.606857 31.517922 6.004363 42.888312 13.604571 11.383688 32.980779 10.625662 43.273974-1.688935zM868.883948 218.816831c-62.503896 16.756364-125.632831 19.66213-189.373506 8.71065-2.526753-0.445506-3.68374 0.61839-3.457663 3.191688 0.751377 8.777143 0.019948 15.645922-2.194285 20.612987-18.53174 41.671481-48.340779 71.500468-89.433767 89.50026-4.268883 1.835221-6.383377 6.656-4.854026 11.037922 12.633766 35.972987 24.868571 66.360519 26.863377 105.05974-2.174338 4.036156-3.258182 10.060468-3.258182 18.086234a7.081558 7.081558 0 0 0 6.649351 7.048311c31.916883 1.728831 86.375065 14.761558 107.054545 41.225974 17.155325 21.942857 24.403117 37.302857 57.716364 33.579221a9.309091 9.309091 0 0 0 7.58026-5.585454 536.768831 536.768831 0 0 1 31.384935-61.572987c23.006753-38.898701 56.120519-74.672208 87.438961-109.315325 18.418701-20.347013 7.114805-101.203117 3.457662-127.933507a3.045403 3.045403 0 0 0-1.396364-2.327272c-0.578494-0.445506-0.891013-1.110442-0.930909-1.994805-0.664935-12.853195 0.352416-26.311481 3.058702-40.361559a7.048312 7.048312 0 0 0-9.176104-8.045714l-15.758961 5.252987c-1.196883 0.398961-1.795325 1.216831-1.795325 2.46026v2.260779c-0.046545 1.775377-0.930909 2.859221-2.65974 3.258182-4.521558 0.977455-6.828883 2.925714-6.915325 5.851428zM123.358753 236.504104c5.625351 42.376312 5.851429 85.424208 0.664935 129.13039-10.286545 1.416312-13.611221 8.777143-9.974026 22.075844 0.558545 2.114494 1.795325 4.022857 3.524156 5.452467 55.322597 46.232935 97.28 102.466494 125.872208 168.694026 2.792727 6.562909 7.048312 7.713247 12.766753 3.457663 2.347221-1.728831 5.006961-5.186494 7.979221-10.372988 29.523117-28.525714 52.795844-34.842597 94.021818-43.686233 2.526753-0.531948 3.657143-2.061299 3.391169-4.588052a29.782442 29.782442 0 0 0-2.46026-9.109611c1.63574-10.372987 2.300675-30.899532 1.994805-61.572987-0.398961-47.742338 32.04987-60.841558 71.081559-75.603117 2.433662-0.884364 2.925714-2.393766 1.462857-4.521558L362.269922 250.534234a28.691948 28.691948 0 0 0-25.201039-12.567273c-27.794286 1.32987-56.167065 1.442909-85.111688 0.332468-12.89974-0.465455-28.791688 1.595844-44.417663-3.258182-23.764779-7.447273-49.471169-16.49039-77.132467-27.129351-5.632-2.174338-8.311688-0.246026-8.045714 5.784935l0.997402 22.807273z m420.119273 210.53174c-3.756883-34.018078-35.062026-58.47439-69.917922-54.631065a64.299221 64.299221 0 0 0-42.642286 22.973507 61.227221 61.227221 0 0 0-13.677714 45.594597c3.756883 34.018078 35.062026 58.481039 69.917922 54.631065a64.299221 64.299221 0 0 0 42.642286-22.966857 61.227221 61.227221 0 0 0 13.677714-45.601247zM599.45226 540.97787c-69.997714 26.909922-86.641039 73.00987-49.936624 138.306494 31.604364 33.37974 70.237091 43.041247 115.898182 28.991168 52.729351-16.157922 67.357922-72.544416 40.494546-117.228051-25.49361-42.422857-60.974545-59.112727-106.456104-50.069611z m-227.806754 42.954805c-70.616104 17.82026-116.895584 105.924156-36.438441 147.748572 21.09839 10.24 43.486753 12.587221 67.158441 7.048311 20.120935-4.740987 35.726961-15.140571 46.811429-31.185454 18.817662-27.262338 15.227013-64.964156 9.043117-97.346494-5.053506-26.663896-15.625974-36.305455-42.888312-35.175065-20.127584 0.844468-34.689662 3.810078-43.686234 8.91013z m334.262858 176.872728c-70.150649 36.903896-122.348052 17.022338-186.115325-19.815065-1.994805-1.110442-3.770182-0.844468-5.319481 0.797922-47.542857 49.737143-132.122597 95.484675-197.751688 49.271688-8.378182-5.897974-10.107013-4.342026-5.186493 4.654546 33.579221 61.44 78.063377 114.368831 144.955844 144.357402 33.645714 15.160519 68.022857 17.886753 100.272208 2.593247 74.512623-35.241558 125.626182-93.356883 153.334026-174.345974 1.236779-3.637195 1.349818-5.831481 0.332467-6.582857-1.775377-1.283325-3.284779-1.595844-4.521558-0.930909z" fill="#343333" /><path d="M460.515632 82.511999a32.116364 29.057662 39.9 1 0 49.27711 41.202059 32.116364 29.057662 39.9 1 0-49.27711-41.202059Z" fill="#FF5646" /><path d="M606.434078 456.930078c13.51813-20.134234 24.223584-33.113766 32.116364-38.965195 86.907013-64.365714 153.001558-116.962078 227.341298-189.772467 3.856623-3.776831 4.854026-6.902026 2.992208-9.375585 0.086442-2.925714 2.393766-4.880623 6.915325-5.851428 1.728831-0.398961 2.613195-1.489455 2.65974-3.258182v-2.260779c0-1.250078 0.598442-2.061299 1.795325-2.46026l15.758961-5.252987a7.048312 7.048312 0 0 1 9.176104 8.045714c-2.706286 14.043429-3.723636 27.501714-3.058702 40.361559 0.039896 0.877714 0.352416 1.542649 0.930909 1.994805a3.045403 3.045403 0 0 1 1.396364 2.327272c3.657143 26.73039 14.961039 107.586494-3.457662 127.933507-31.318442 34.643117-64.432208 70.416623-87.438961 109.315325a536.768831 536.768831 0 0 0-31.384935 61.572987 9.309091 9.309091 0 0 1-7.58026 5.585454c-33.313247 3.723636-40.561039-11.636364-57.716364-33.579221-20.679481-26.464416-75.137662-39.497143-107.054545-41.225974a7.081558 7.081558 0 0 1-6.649351-7.048311c0-8.032416 1.083844-14.056727 3.258182-18.086234zM359.144727 497.55761c-5.718442-7.979221-10.818494-14.03013-15.293506-18.152727a1547.137662 1547.137662 0 0 1-217.965715-249.417143c-0.977455-1.422961-1.821922 0.744727-2.526753 6.516364l-0.997402-22.807273c-0.265974-6.03761 2.413714-7.965922 8.045714-5.784935 27.661299 10.638961 53.367688 19.682078 77.132467 27.129351 15.625974 4.854026 31.517922 2.792727 44.417663 3.258182 28.944623 1.103792 57.317403 0.997403 85.111688-0.332468a28.691948 28.691948 0 0 1 25.201039 12.567273L433.683948 355.859948c1.462857 2.127792 0.970805 3.630545-1.462857 4.521558-39.031688 14.761558-71.480519 27.860779-71.081559 75.603117 0.30587 30.666805-0.359065 51.2-1.994805 61.572987z" fill="#029846" /><path d="M868.883948 218.816831c1.861818 2.473558 0.864416 5.598753-2.992208 9.375585-74.33974 72.81039-140.434286 125.406753-227.341298 189.772467-7.892779 5.851429-18.598234 18.830961-32.116364 38.965195-1.994805-38.699221-14.22961-69.086753-26.863377-105.05974a8.843636 8.843636 0 0 1 4.854026-11.037922c41.092987-18.006442 70.902026-47.835429 89.433767-89.50026 2.214234-4.973714 2.945662-11.835844 2.194285-20.612987-0.226078-2.579948 0.930909-3.643844 3.457663-3.191688 63.740675 10.944831 126.86961 8.045714 189.373506-8.71065zM359.144727 497.55761c1.283325 2.832623 2.101195 5.864727 2.46026 9.109611 0.265974 2.526753-0.864416 4.056104-3.391169 4.588052-41.225974 8.843636-64.498701 15.160519-94.021818 43.686233-27.062857-72.81039-71.214545-149.743377-140.168312-189.307012 5.186494-43.712831 4.960416-86.760727-0.664935-129.13039 0.704831-5.771636 1.549299-7.939325 2.526753-6.516364a1547.137662 1547.137662 0 0 0 217.965715 249.417143c4.475013 4.122597 9.575065 10.173506 15.293506 18.152727z" fill="#FEFEFE" /><path d="M124.023688 365.634494c68.953766 39.563636 113.105455 116.496623 140.168312 189.307012-2.97226 5.186494-5.632 8.644156-7.979221 10.372988-5.718442 4.255584-9.974026 3.098597-12.766753-3.457663-28.592208-66.227532-70.54961-122.46774-125.872208-168.694026a10.612364 10.612364 0 0 1-3.524156-5.452467c-3.637195-13.298701-0.312519-20.666182 9.974026-22.075844z" fill="#029846" /><path d="M417.243848 460.966026a61.971948 63.501299 83.7 1 0 126.235623-13.936543 61.971948 63.501299 83.7 1 0-126.235623 13.936543Z" fill="#FCC556" /><path d="M549.515636 679.284364c-6.516364-35.999584-1.755429-68.275532 14.296104-96.814546 8.245195-14.628571 20.120935-28.459221 35.64052-41.491948 45.481558-9.043117 80.962494 7.646753 106.456104 50.069611 26.863377 44.683636 12.234805 101.07013-40.494546 117.228051-45.661091 14.043429-84.293818 4.388571-115.898182-28.991168z" fill="#FF5646" /><path d="M599.45226 540.97787c-15.519584 13.032727-27.395325 26.863377-35.64052 41.491948-16.051532 28.539013-20.812468 60.814961-14.296104 96.814546-36.704416-65.296623-20.061091-111.403221 49.936624-138.306494z" fill="#FEFEFE" /><path d="M335.207065 731.681247c-21.371013-27.927273-25.959065-57.117922-13.764156-87.571948 9.262545-23.192935 25.998961-43.247377 50.202597-60.176624 8.996571-5.106701 23.558649-8.072312 43.686234-8.91013 27.262338-1.13039 37.834805 8.511169 42.888312 35.175065 6.183896 32.382338 9.774545 70.084156-9.043117 97.346494-11.084468 16.038234-26.690494 26.437818-46.811429 31.185454-23.671688 5.53226-46.060052 3.191688-67.158441-7.048311z" fill="#FF5646" /><path d="M371.645506 583.932675c-24.203636 16.929247-40.940052 36.983688-50.202597 60.176624-12.194909 30.454026-7.606857 59.644675 13.764156 87.571948-80.457143-41.824416-34.177662-129.928312 36.438441-147.748572z" fill="#FEFEFE" /><path d="M705.908364 760.805403c1.236779-0.664935 2.746182-0.359065 4.521558 0.930909 1.017351 0.744727 0.904312 2.939013-0.332467 6.582857-27.707844 80.989091-78.821403 139.104416-153.334026 174.345974-32.249351 15.293506-66.626494 12.567273-100.272208-2.593247-66.892468-29.988571-111.376623-82.917403-144.955844-144.357402-4.920519-9.003221-3.191688-10.559169 5.186493-4.654546 65.629091 46.212987 150.208831 0.465455 197.751688-49.271688 1.549299-1.649039 3.324675-1.915013 5.319481-0.797922 63.767273 36.837403 115.964675 56.718961 186.115325 19.815065z" fill="#FCC556" /></svg>